<svg width="267" height="73" viewBox="0 0 267 73" fill="none" xmlns="http://www.w3.org/2000/svg">
<path d="M124.667 56H116.016L106.603 40.8605L103.384 43.1708V56H95.7647V20.0683H103.384V36.5104L106.382 32.2831L116.115 20.0683H124.569L112.035 35.9697L124.667 56ZM148.065 56L147.057 52.4855H146.664C145.861 53.7635 144.722 54.7548 143.248 55.4593C141.773 56.1475 140.094 56.4915 138.209 56.4915C134.982 56.4915 132.548 55.6313 130.91 53.9109C129.271 52.1742 128.452 49.6837 128.452 46.4395V28.5228H135.948V44.5717C135.948 46.5542 136.301 48.0452 137.005 49.0447C137.71 50.0278 138.832 50.5193 140.372 50.5193C142.469 50.5193 143.985 49.823 144.919 48.4303C145.853 47.0212 146.32 44.6945 146.32 41.4504V28.5228H153.816V56H148.065ZM170.381 56.4915C167.153 56.4915 164.613 55.2381 162.762 52.7312C160.927 50.2244 160.009 46.7508 160.009 42.3106C160.009 37.8048 160.943 34.2984 162.811 31.7916C164.695 29.2683 167.284 28.0067 170.577 28.0067C174.035 28.0067 176.672 29.3503 178.491 32.0373H178.737C178.36 29.9893 178.172 28.1624 178.172 26.5567V17.7581H185.692V56H179.941L178.491 52.4363H178.172C176.468 55.1398 173.871 56.4915 170.381 56.4915ZM173.01 50.5193C174.928 50.5193 176.328 49.9622 177.213 48.8481C178.114 47.7339 178.606 45.8415 178.688 43.1708V42.3597C178.688 39.4105 178.229 37.2968 177.311 36.0188C176.41 34.7408 174.936 34.1018 172.888 34.1018C171.216 34.1018 169.914 34.8146 168.98 36.24C168.062 37.6491 167.604 39.7054 167.604 42.4089C167.604 45.1124 168.071 47.1441 169.004 48.504C169.938 49.8475 171.274 50.5193 173.01 50.5193ZM193.213 21.42C193.213 18.9787 194.573 17.7581 197.293 17.7581C200.013 17.7581 201.372 18.9787 201.372 21.42C201.372 22.5834 201.028 23.4927 200.34 24.1481C199.668 24.7871 198.653 25.1066 197.293 25.1066C194.573 25.1066 193.213 23.8778 193.213 21.42ZM201.028 56H193.532V28.5228H201.028V56ZM217.003 56H209.507V20.0683H230.103V26.3109H217.003V35.5764H229.194V41.7944H217.003V56ZM266.182 56H257.482L249.126 42.4089L240.769 56H232.61L244.53 37.4689L233.372 20.0683H241.777L249.519 32.9959L257.113 20.0683H265.322L254.041 37.8867L266.182 56Z" fill="#FBFAFA"/>
<path d="M56.3569 64.9659C55.3978 65.003 54.4398 64.869 53.5278 64.5701" stroke="#14684E" stroke-width="2.32841" stroke-miterlimit="10"/>
<path d="M36.5886 71.1771C55.6913 71.1771 71.1771 55.6913 71.1771 36.5886C71.1771 17.4858 55.6913 2 36.5886 2C17.4858 2 2 17.4858 2 36.5886C2 55.6913 17.4858 71.1771 36.5886 71.1771Z" fill="#38A4FF" stroke="#38A4FF" stroke-width="0.582103" stroke-miterlimit="10"/>
<path d="M21.029 67.4863C33.1426 45.8088 25.5054 31.0525 25.5054 31.0525C16.4304 31.687 9.3811 37.9679 9.3811 37.9679C20.9067 48.568 16.5875 64.8087 16.5875 64.8087C16.5875 64.8087 19.7716 67.0206 21.029 67.4863Z" fill="#FBFAFA" stroke="#38A4FF" stroke-width="2.32841" stroke-miterlimit="10"/>
<path d="M44.8544 22.4084C34.2368 19.2999 23.6717 23.6715 23.6717 23.6715C32.4382 52.7301 21.0289 67.4864 21.0289 67.4864C21.0289 67.4864 27.8221 71.1712 37.9681 71.1712C37.9681 71.1712 53.1145 35.4358 44.8544 22.4084Z" fill="#FBFAFA" stroke="#38A4FF" stroke-width="2.32841" stroke-miterlimit="10"/>
<path d="M68.7964 23.9628C59.1859 11.6862 43.0442 13.06 43.0442 13.06C51.8048 55.9493 25.0455 69.1922 25.0455 69.1922C25.0455 69.1922 41.2222 75.345 55.1286 65.7869C55.1286 65.7869 78.5525 50.8967 68.7964 23.9628Z" fill="#FBFAFA" stroke="#38A4FF" stroke-width="2.32841" stroke-miterlimit="10"/>
<path d="M36.5886 71.1771C55.6913 71.1771 71.1771 55.6913 71.1771 36.5886C71.1771 17.4858 55.6913 2 36.5886 2C17.4858 2 2 17.4858 2 36.5886C2 55.6913 17.4858 71.1771 36.5886 71.1771Z" stroke="#38A4FF" stroke-width="2.32841" stroke-miterlimit="10"/>
<path d="M29.6675 70.2519C32.373 68.3397 34.7816 66.0389 36.8157 63.4238" stroke="#38A4FF" stroke-width="2.32841" stroke-miterlimit="10"/>
<path d="M70.7115 31.0531C65.4726 23.1888 58.2603 19.6031 52.5266 17.8335C52.026 20.255 50.1342 21.8209 47.6719 22.2109C49.3251 39.9185 44.6682 51.7992 40.058 58.9649C39.0633 60.5076 37.9868 61.9961 36.8331 63.4238" stroke="#38A4FF" stroke-width="2.32841" stroke-miterlimit="10"/>
<path d="M53.5394 64.5703C53.1385 64.4395 52.7492 64.2759 52.3751 64.0813C47.9104 61.7529 46.5134 55.6117 49.2492 50.3495C51.9851 45.0873 57.8236 42.6948 62.2884 45.0116C65.1581 46.5076 66.7647 49.5869 66.8113 52.998" stroke="#38A4FF" stroke-width="2.32841" stroke-miterlimit="10"/>
<path d="M44.7148 25.5758C42.0818 24.9967 39.404 24.6442 36.7108 24.5222C35.1757 24.5249 33.6428 24.6377 32.1239 24.8598C32.1239 24.9588 32.1239 25.0519 32.1239 25.1567C32.116 26.2102 31.7676 27.2329 31.1308 28.0721C30.494 28.9114 29.6029 29.5222 28.5905 29.8135C32.5139 48.2429 28.9805 59.7162 24.021 68.6398" stroke="#38A4FF" stroke-width="2.32841" stroke-miterlimit="10"/>
<path d="M26.0875 34.0162C22.7635 34.4982 19.5407 35.5207 16.5468 37.0432C16.8816 37.6165 16.9926 38.2934 16.8582 38.9435C16.7239 39.5937 16.3538 40.1712 15.8192 40.5649C20.8602 48.1322 21.3783 56.9395 19.37 66.3695" stroke="#38A4FF" stroke-width="2.32841" stroke-miterlimit="10"/>
</svg>
