<svg width="290" height="79" viewBox="0 0 290 79" fill="none" xmlns="http://www.w3.org/2000/svg">
<path d="M135.281 59.9999H125.881L115.654 43.5505L112.156 46.0606V59.9999H103.878V20.9592H112.156V38.8239L115.414 34.2309L125.988 20.9592H135.174L121.555 38.2364L135.281 59.9999ZM160.703 59.9999L159.608 56.1813H159.181C158.308 57.5698 157.071 58.6469 155.469 59.4124C153.867 60.1601 152.042 60.534 149.995 60.534C146.488 60.534 143.844 59.5993 142.064 57.7301C140.283 55.843 139.393 53.1371 139.393 49.6122V30.1452H147.538V47.5827C147.538 49.7368 147.921 51.3568 148.686 52.4428C149.452 53.5109 150.671 54.045 152.345 54.045C154.623 54.045 156.27 53.2884 157.285 51.7752C158.3 50.2442 158.807 47.7162 158.807 44.1913V30.1452H166.951V59.9999H160.703ZM184.95 60.534C181.443 60.534 178.683 59.1721 176.672 56.4483C174.678 53.7245 173.681 49.9504 173.681 45.126C173.681 40.2303 174.696 36.4206 176.725 33.6968C178.772 30.9553 181.585 29.5845 185.163 29.5845C188.92 29.5845 191.786 31.0443 193.762 33.9639H194.029C193.619 31.7386 193.415 29.7536 193.415 28.009V18.4491H201.586V59.9999H195.337L193.762 56.1279H193.415C191.563 59.0653 188.742 60.534 184.95 60.534ZM187.807 54.045C189.89 54.045 191.412 53.4397 192.373 52.2291C193.352 51.0186 193.887 48.9624 193.976 46.0606V45.1794C193.976 41.9749 193.477 39.6784 192.48 38.2898C191.501 36.9013 189.899 36.207 187.673 36.207C185.858 36.207 184.442 36.9814 183.428 38.5302C182.431 40.0612 181.932 42.2954 181.932 45.2328C181.932 48.1702 182.44 50.3777 183.454 51.8553C184.469 53.3151 185.92 54.045 187.807 54.045ZM209.757 22.4279C209.757 19.7753 211.235 18.4491 214.19 18.4491C217.145 18.4491 218.623 19.7753 218.623 22.4279C218.623 23.6919 218.249 24.6799 217.501 25.392C216.772 26.0863 215.668 26.4334 214.19 26.4334C211.235 26.4334 209.757 25.0983 209.757 22.4279ZM218.249 59.9999H210.105V30.1452H218.249V59.9999ZM235.606 59.9999H227.462V20.9592H249.839V27.7419H235.606V37.8092H248.851V44.5652H235.606V59.9999ZM289.04 59.9999H279.587L270.508 45.2328L261.429 59.9999H252.563L265.514 39.8654L253.391 20.9592H262.524L270.935 35.0053L279.187 20.9592H288.106L275.849 40.3193L289.04 59.9999Z" fill="#222222"/>
<path d="M61.0601 70.2661C60.0181 70.3065 58.9773 70.1608 57.9863 69.8361" stroke="#14684E" stroke-width="2.52988" stroke-miterlimit="10"/>
<path d="M39.5813 76.9999C60.3369 76.9999 77.1627 60.2106 77.1627 39.4999C77.1627 18.7892 60.3369 1.99988 39.5813 1.99988C18.8257 1.99988 2 18.7892 2 39.4999C2 60.2106 18.8257 76.9999 39.5813 76.9999Z" fill="#38A4FF" stroke="#38A4FF" stroke-width="0.632469" stroke-miterlimit="10"/>
<path d="M22.6754 72.9992C35.8371 49.4971 27.5391 33.4987 27.5391 33.4987C17.6789 34.1866 10.0197 40.9961 10.0197 40.9961C22.5425 52.4885 17.8496 70.0962 17.8496 70.0962C17.8496 70.0962 21.3092 72.4944 22.6754 72.9992Z" fill="#FBFAFA" stroke="#38A4FF" stroke-width="2.52988" stroke-miterlimit="10"/>
<path d="M48.5624 24.1267C37.0261 20.7566 25.5468 25.4962 25.5468 25.4962C35.0718 57.0007 22.6754 72.9991 22.6754 72.9991C22.6754 72.9991 30.0563 76.994 41.0803 76.994C41.0803 76.994 57.5371 38.2507 48.5624 24.1267Z" fill="#FBFAFA" stroke="#38A4FF" stroke-width="2.52988" stroke-miterlimit="10"/>
<path d="M74.576 25.8111C64.1339 12.5012 46.5955 13.9906 46.5955 13.9906C56.1142 60.4901 27.0396 74.8476 27.0396 74.8476C27.0396 74.8476 44.6159 81.5184 59.7256 71.1557C59.7256 71.1557 85.1761 55.0121 74.576 25.8111Z" fill="#FBFAFA" stroke="#38A4FF" stroke-width="2.52988" stroke-miterlimit="10"/>
<path d="M39.5813 76.9999C60.3369 76.9999 77.1627 60.2106 77.1627 39.4999C77.1627 18.7892 60.3369 1.99988 39.5813 1.99988C18.8257 1.99988 2 18.7892 2 39.4999C2 60.2106 18.8257 76.9999 39.5813 76.9999Z" stroke="#38A4FF" stroke-width="2.52988" stroke-miterlimit="10"/>
<path d="M32.0612 75.9969C35.0007 73.9238 37.6178 71.4293 39.8279 68.5941" stroke="#38A4FF" stroke-width="2.52988" stroke-miterlimit="10"/>
<path d="M76.6568 33.4979C70.9645 24.9718 63.1282 21.0842 56.8984 19.1656C56.3545 21.791 54.299 23.4887 51.6236 23.9115C53.4198 43.1096 48.3601 55.9904 43.3509 63.7592C42.2702 65.4318 41.1005 67.0455 39.847 68.5935" stroke="#38A4FF" stroke-width="2.52988" stroke-miterlimit="10"/>
<path d="M57.9991 69.8367C57.5636 69.6949 57.1405 69.5176 56.7341 69.3065C51.8831 66.7821 50.3652 60.124 53.3378 54.4189C56.3104 48.7137 62.654 46.1199 67.5051 48.6317C70.6231 50.2536 72.3688 53.5921 72.4194 57.2904" stroke="#38A4FF" stroke-width="2.52988" stroke-miterlimit="10"/>
<path d="M48.4107 27.5595C45.5499 26.9317 42.6404 26.5495 39.7142 26.4172C38.0463 26.4201 36.3807 26.5424 34.7304 26.7833C34.7304 26.8906 34.7304 26.9915 34.7304 27.1051C34.7218 28.2473 34.3433 29.356 33.6514 30.266C32.9595 31.1759 31.9913 31.8381 30.8913 32.1539C35.1541 52.1346 31.315 64.5736 25.9264 74.2483" stroke="#38A4FF" stroke-width="2.52988" stroke-miterlimit="10"/>
<path d="M28.1715 36.7112C24.5599 37.2338 21.0583 38.3423 17.8054 39.9929C18.1691 40.6145 18.2896 41.3483 18.1437 42.0532C17.9977 42.7581 17.5956 43.3843 17.0148 43.8111C22.492 52.0154 23.0549 61.5639 20.8728 71.7878" stroke="#38A4FF" stroke-width="2.52988" stroke-miterlimit="10"/>
</svg>
